<svg width="100%" height="100%" viewBox="0 0 150 100" version="1.1" xmlns="http://www.w3.org/2000/svg" xmlns:xlink="http://www.w3.org/1999/xlink" xml:space="preserve" style="fill-rule:evenodd;clip-rule:evenodd;stroke-linejoin:round;stroke-miterlimit:2;">
    <rect id="Artboard1" x="0" y="0" width="150" height="100" style="fill:none;"/>
    <g id="Artboard11" serif:id="Artboard1">
        <g transform="matrix(1,0,0,1,-0.335871,2.61798)">
            <g transform="matrix(0.70292,0,0,0.70292,-33.7457,59.7377)">
                <g transform="matrix(1,0,0,1,-556.31,-17.654)">
                    <path d="M760.962,26.451L762.572,26.451C764.074,26.34 765.578,26.632 766.929,27.298C768.42,28.168 769.339,29.769 769.339,31.494C769.339,33.702 767.834,35.646 765.696,36.198C764.142,36.534 762.548,36.645 760.962,36.528L760.962,26.451ZM771.939,31.581C771.974,28.749 770.345,26.145 767.783,24.937C766.915,24.528 765.483,24.06 762.114,24.06L758.177,24.06L758.177,47.165L760.962,47.165L760.962,37.117L768.49,47.165L771.77,47.165L765.316,38.645C769.023,38.413 771.946,35.294 771.938,31.58" style="fill:rgb(180,180,180);fill-rule:nonzero;"/>
                </g>
                <g transform="matrix(1,0,0,1,-158.84,-14.483)">
                    <path d="M223.155,35.057L227.122,25.765L231,35.057L223.155,35.057ZM216.478,44.037L219.31,44.037L222.11,37.456L232.016,37.456L234.753,44.037L237.613,44.037L227.185,19.737L216.478,44.037Z" style="fill:rgb(180,180,180);fill-rule:nonzero;"/>
                </g>
                <g transform="matrix(1,0,0,1,-232.358,-17.528)">
                    <path d="M319.257,23.888L316.673,23.888L316.673,47.082L327.536,47.082L327.536,44.682L319.257,44.682L319.257,23.888Z" style="fill:rgb(180,180,180);fill-rule:nonzero;"/>
                </g>
                <g transform="matrix(1,0,0,1,-268.929,-17.529)">
                    <path d="M366.515,26.291L372.115,26.291L372.115,47.082L374.7,47.082L374.7,26.291L380.358,26.291L380.358,23.891L366.518,23.891L366.515,26.291Z" style="fill:rgb(180,180,180);fill-rule:nonzero;"/>
                </g>
                <g transform="matrix(1,0,0,1,119.105,6.36)">
                    <rect x="0" y="0" width="2.586" height="23.193" style="fill:rgb(180,180,180);"/>
                </g>
                <g transform="matrix(1,0,0,1,-358.181,-13.889)">
                    <path d="M501.288,38.4L492.861,18.933L488.153,43.447L490.8,43.447L493.785,27.758L493.849,27.758L501.289,44.397L508.765,27.758L508.828,27.758L511.81,43.447L514.454,43.447L509.754,18.933L501.288,38.4Z" style="fill:rgb(180,180,180);fill-rule:nonzero;"/>
                </g>
                <g transform="matrix(1,0,0,1,-449.112,-17.528)">
                    <path d="M612.08,47.081L624.108,47.081L624.108,44.681L614.666,44.681L614.666,35.581L623.833,35.581L623.833,33.181L614.666,33.181L614.666,26.29L624.108,26.29L624.108,23.89L612.08,23.89L612.08,47.081Z" style="fill:rgb(180,180,180);fill-rule:nonzero;"/>
                </g>
                <g transform="matrix(1,0,0,1,-498.462,-17.529)">
                    <path d="M679.337,26.291L684.937,26.291L684.937,47.082L687.518,47.082L687.518,26.291L693.18,26.291L693.18,23.891L679.34,23.891L679.337,26.291Z" style="fill:rgb(180,180,180);fill-rule:nonzero;"/>
                </g>
                <g transform="matrix(1,0,0,1,224.081,6.36)">
                    <rect x="0" y="0" width="2.586" height="23.193" style="fill:rgb(180,180,180);"/>
                </g>
                <g transform="matrix(1,0,0,1,-651.539,-17.529)">
                    <path d="M900.417,23.889L890.546,33.824L890.546,23.889L887.961,23.889L887.961,47.083L890.546,47.083L890.546,37.083L891.19,36.437L900.7,47.083L904.268,47.083L893.012,34.683L903.899,23.883L900.417,23.889Z" style="fill:rgb(180,180,180);fill-rule:nonzero;"/>
                </g>
            </g>
            <g transform="matrix(0.705556,0,0,0.705556,-34.0514,58.7942)">
                <g transform="matrix(1,0,0,1,-159.44,-98.655)">
                    <path d="M220.531,136C220.269,135.774 219.937,135.647 219.592,135.639C219.332,135.639 218.986,135.791 218.986,136.093C218.986,136.412 219.368,136.534 219.614,136.613L219.975,136.722C220.734,136.946 221.318,137.328 221.318,138.209C221.358,138.757 221.151,139.295 220.755,139.676C220.316,140.023 219.769,140.204 219.21,140.189C218.524,140.182 217.855,139.966 217.296,139.568L217.902,138.427C218.238,138.762 218.685,138.963 219.159,138.991C219.492,138.991 219.845,138.825 219.845,138.441C219.845,138.057 219.289,137.907 218.986,137.82C218.097,137.568 217.512,137.336 217.512,136.281C217.511,136.259 217.511,136.238 217.511,136.216C217.511,135.248 218.308,134.451 219.276,134.451C219.314,134.451 219.352,134.453 219.39,134.455C219.984,134.466 220.567,134.62 221.09,134.902L220.531,136Z" style="fill:rgb(180,180,180);fill-rule:nonzero;"/>
                </g>
                <g transform="matrix(1,0,0,1,62.982,35.943)">
                    <rect x="0" y="0" width="1.416" height="5.446" style="fill:rgb(180,180,180);"/>
                </g>
                <g transform="matrix(1,0,0,1,-180.316,-99.053)">
                    <path d="M246.672,135L248.066,135L249.166,137.911L250.341,135L251.749,135L252.573,140.446L251.157,140.446L250.757,137.312L250.742,137.312L249.435,140.446L248.872,140.446L247.622,137.312L247.607,137.312L247.152,140.446L245.744,140.446L246.672,135Z" style="fill:rgb(180,180,180);fill-rule:nonzero;"/>
                </g>
                <g transform="matrix(1,0,0,1,-201.969,-99.053)">
                    <path d="M276.673,137.495L276.911,137.495C277.424,137.495 277.929,137.495 277.929,136.831C277.929,136.145 277.459,136.138 276.911,136.138L276.673,136.138L276.673,137.495ZM275.257,134.995L277.424,134.995C278.594,134.995 279.403,135.537 279.403,136.786C279.403,138.072 278.71,138.635 277.475,138.635L276.675,138.635L276.675,140.441L275.259,140.441L275.257,134.995Z" style="fill:rgb(180,180,180);fill-rule:nonzero;"/>
                </g>
                <g transform="matrix(1,0,0,1,-216.319,-99.052)">
                    <path d="M296.229,139.242L297.929,139.242L297.929,140.442L294.816,140.442L294.816,135L296.232,135L296.229,139.242Z" style="fill:rgb(180,180,180);fill-rule:nonzero;"/>
                </g>
                <g transform="matrix(1,0,0,1,82.503,35.943)">
                    <rect x="0" y="0" width="1.416" height="5.446" style="fill:rgb(180,180,180);"/>
                </g>
                <g transform="matrix(1,0,0,1,-235.006,-99.052)">
                    <path d="M321.7,136.194L321.7,137.104L323.253,137.104L323.253,138.304L321.7,138.304L321.7,140.442L320.284,140.442L320.284,134.996L323.412,134.996L323.412,136.196L321.7,136.194Z" style="fill:rgb(180,180,180);fill-rule:nonzero;"/>
                </g>
                <g transform="matrix(1,0,0,1,-245.334,-99.053)">
                    <path d="M334.358,135L336.058,135L337.076,136.48L338.094,135L339.794,135L337.786,137.831L337.786,140.446L336.371,140.446L336.371,137.831L334.358,135Z" style="fill:rgb(180,180,180);fill-rule:nonzero;"/>
                </g>
                <g transform="matrix(1,0,0,1,-269.256,-99.052)">
                    <path d="M369.546,140.441L368.13,140.441L368.13,136.194L366.96,136.194L366.96,135L370.717,135L370.717,136.2L369.546,136.2L369.546,140.441Z" style="fill:rgb(180,180,180);fill-rule:nonzero;"/>
                </g>
                <g transform="matrix(1,0,0,1,-282.214,-99.052)">
                    <path d="M386.036,136.194L386.036,137.104L387.636,137.104L387.636,138.304L386.036,138.304L386.036,139.243L387.718,139.243L387.718,140.443L384.618,140.443L384.618,134.997L387.718,134.997L387.718,136.197L386.036,136.194Z" style="fill:rgb(180,180,180);fill-rule:nonzero;"/>
                </g>
                <g transform="matrix(1,0,0,1,-293.597,-98.655)">
                    <path d="M404.3,136.425C404.004,136.04 403.543,135.818 403.058,135.825C403.051,135.825 403.045,135.825 403.038,135.825C402.251,135.825 401.603,136.473 401.603,137.26C401.603,137.285 401.604,137.309 401.605,137.334C401.604,137.357 401.603,137.38 401.603,137.403C401.603,138.178 402.241,138.815 403.015,138.815C403.036,138.815 403.057,138.815 403.078,138.814C403.549,138.807 403.995,138.597 404.299,138.237L404.299,139.937C403.899,140.088 403.477,140.173 403.049,140.19C402.292,140.188 401.562,139.902 401.005,139.39C400.426,138.865 400.106,138.112 400.131,137.331C400.127,136.588 400.415,135.872 400.931,135.338C401.478,134.782 402.224,134.465 403.004,134.457C403.449,134.461 403.889,134.554 404.297,134.731L404.3,136.425Z" style="fill:rgb(180,180,180);fill-rule:nonzero;"/>
                </g>
                <g transform="matrix(1,0,0,1,-308.683,-99.052)">
                    <path d="M424.154,137.1L424.154,135L425.57,135L425.57,140.446L424.154,140.446L424.154,138.214L422.11,138.214L422.11,140.446L420.695,140.446L420.695,135L422.11,135L422.11,137.1L424.154,137.1Z" style="fill:rgb(180,180,180);fill-rule:nonzero;"/>
                </g>
                <g transform="matrix(1,0,0,1,-325.858,-99.053)">
                    <path d="M444.1,135L445.516,135L448.109,138.33L448.124,138.33L448.124,135L449.539,135L449.539,140.446L448.124,140.446L445.531,137.109L445.517,137.109L445.517,140.446L444.1,140.446L444.1,135Z" style="fill:rgb(180,180,180);fill-rule:nonzero;"/>
                </g>
                <g transform="matrix(1,0,0,1,-343.83,-98.555)">
                    <path d="M470.067,137.126C470.065,137.155 470.065,137.184 470.065,137.214C470.065,138.059 470.76,138.755 471.606,138.755C472.451,138.755 473.147,138.059 473.147,137.214C473.147,137.184 473.146,137.155 473.144,137.126C473.09,136.321 472.412,135.688 471.606,135.688C470.799,135.688 470.121,136.321 470.067,137.126M474.618,137.119C474.623,137.192 474.626,137.266 474.626,137.339C474.626,138.996 473.263,140.359 471.606,140.359C469.949,140.359 468.586,138.996 468.586,137.339C468.586,135.682 469.949,134.319 471.606,134.319C471.606,134.319 471.607,134.319 471.607,134.319C471.645,134.318 471.682,134.317 471.72,134.317C473.274,134.317 474.566,135.566 474.618,137.119" style="fill:rgb(180,180,180);fill-rule:nonzero;"/>
                </g>
                <g transform="matrix(1,0,0,1,-363.435,-99.052)">
                    <path d="M496.729,139.242L498.429,139.242L498.429,140.442L495.317,140.442L495.317,135L496.732,135L496.729,139.242Z" style="fill:rgb(180,180,180);fill-rule:nonzero;"/>
                </g>
                <g transform="matrix(1,0,0,1,-373.72,-98.555)">
                    <path d="M510.8,137.126C510.798,137.155 510.798,137.184 510.798,137.214C510.798,138.059 511.493,138.755 512.339,138.755C513.184,138.755 513.88,138.059 513.88,137.214C513.88,137.184 513.879,137.155 513.877,137.126C513.823,136.321 513.145,135.688 512.339,135.688C511.532,135.688 510.854,136.321 510.8,137.126M515.35,137.119C515.355,137.192 515.358,137.266 515.358,137.339C515.358,138.996 513.995,140.359 512.338,140.359C510.681,140.359 509.318,138.996 509.318,137.339C509.318,135.682 510.681,134.319 512.338,134.319C512.376,134.318 512.414,134.317 512.452,134.317C514.006,134.317 515.298,135.566 515.35,137.119" style="fill:rgb(180,180,180);fill-rule:nonzero;"/>
                </g>
                <g transform="matrix(1,0,0,1,-392.569,-98.554)">
                    <path d="M540.725,136.9C540.779,137.659 540.584,138.414 540.169,139.052C539.647,139.762 538.803,140.164 537.923,140.122C537.873,140.125 537.823,140.126 537.773,140.126C536.263,140.126 535.02,138.883 535.02,137.373C535.02,137.331 535.021,137.289 535.023,137.247C535.02,137.196 535.019,137.145 535.019,137.094C535.019,135.566 536.276,134.309 537.804,134.309C537.862,134.309 537.919,134.31 537.977,134.314C539.031,134.259 540.014,134.869 540.433,135.838L539.09,136.402C538.93,135.888 538.451,135.535 537.913,135.536C537.095,135.691 536.497,136.413 536.497,137.245C536.497,138.086 537.107,138.813 537.935,138.959C537.973,138.963 538.01,138.965 538.048,138.965C538.584,138.965 539.035,138.547 539.076,138.013L537.92,138.013L537.92,136.9L540.725,136.9Z" style="fill:rgb(180,180,180);fill-rule:nonzero;"/>
                </g>
                <g transform="matrix(1,0,0,1,-409.627,-99.053)">
                    <path d="M558.267,135L559.967,135L560.985,136.48L562,135L563.7,135L561.693,137.831L561.693,140.446L560.278,140.446L560.278,137.831L558.267,135Z" style="fill:rgb(180,180,180);fill-rule:nonzero;"/>
                </g>
                <g transform="matrix(1,0,0,1,159.025,35.119)">
                    <rect x="0" y="0" width="0.621" height="6.27" style="fill:rgb(180,180,180);"/>
                </g>
                <g transform="matrix(1,0,0,1,-453.908,-99.051)">
                    <path d="M621.483,136.678L621.469,136.678L620.884,138.411L622.062,138.411L621.483,136.678ZM620.494,139.494L620.119,140.44L618.619,140.44L620.714,134.994L622.26,134.994L624.312,140.44L622.8,140.44L622.446,139.494L620.494,139.494Z" style="fill:rgb(180,180,180);fill-rule:nonzero;"/>
                </g>
                <g transform="matrix(1,0,0,1,-471.101,-99.053)">
                    <path d="M642.973,135L644.367,135L645.467,137.911L646.637,135L648.046,135L648.869,140.446L647.453,140.446L647.053,137.312L647.039,137.312L645.732,140.446L645.168,140.446L643.919,137.312L643.904,137.312L643.45,140.446L642.041,140.446L642.973,135Z" style="fill:rgb(180,180,180);fill-rule:nonzero;"/>
                </g>
                <g transform="matrix(1,0,0,1,-492.756,-99.053)">
                    <path d="M672.976,137.495L673.215,137.495C673.728,137.495 674.233,137.495 674.233,136.831C674.233,136.145 673.763,136.138 673.215,136.138L672.976,136.138L672.976,137.495ZM671.561,134.995L673.728,134.995C674.898,134.995 675.707,135.537 675.707,136.786C675.707,138.072 675.014,138.635 673.779,138.635L672.979,138.635L672.979,140.441L671.564,140.441L671.561,134.995Z" style="fill:rgb(180,180,180);fill-rule:nonzero;"/>
                </g>
                <g transform="matrix(1,0,0,1,-507.106,-99.052)">
                    <path d="M692.533,139.242L694.233,139.242L694.233,140.442L691.12,140.442L691.12,135L692.535,135L692.533,139.242Z" style="fill:rgb(180,180,180);fill-rule:nonzero;"/>
                </g>
                <g transform="matrix(1,0,0,1,188.02,35.943)">
                    <rect x="0" y="0" width="1.415" height="5.446" style="fill:rgb(180,180,180);"/>
                </g>
                <g transform="matrix(1,0,0,1,-525.794,-99.052)">
                    <path d="M718,136.194L718,137.104L719.553,137.104L719.553,138.304L718,138.304L718,140.442L716.585,140.442L716.585,134.996L719.712,134.996L719.712,136.196L718,136.194Z" style="fill:rgb(180,180,180);fill-rule:nonzero;"/>
                </g>
                <g transform="matrix(1,0,0,1,-536.121,-99.053)">
                    <path d="M730.662,135L732.362,135L733.38,136.48L734.4,135L736.1,135L734.093,137.831L734.093,140.446L732.67,140.446L732.67,137.831L730.662,135Z" style="fill:rgb(180,180,180);fill-rule:nonzero;"/>
                </g>
                <g transform="matrix(1,0,0,1,-561.198,-99.053)">
                    <path d="M766.254,137.495L766.493,137.495C767.006,137.495 767.511,137.495 767.511,136.831C767.511,136.145 767.041,136.138 766.493,136.138L766.254,136.138L766.254,137.495ZM764.839,134.995L767.006,134.995C768.176,134.995 768.985,135.537 768.985,136.786C768.985,138.072 768.292,138.635 767.057,138.635L766.257,138.635L766.257,140.441L764.842,140.441L764.839,134.995Z" style="fill:rgb(180,180,180);fill-rule:nonzero;"/>
                </g>
                <g transform="matrix(1,0,0,1,-574.79,-98.555)">
                    <path d="M784.836,137.126C784.834,137.155 784.834,137.184 784.834,137.214C784.834,138.059 785.529,138.755 786.375,138.755C787.22,138.755 787.916,138.059 787.916,137.214C787.916,137.184 787.915,137.155 787.913,137.126C787.859,136.321 787.181,135.688 786.375,135.688C785.568,135.688 784.89,136.321 784.836,137.126M789.387,137.119C789.392,137.192 789.395,137.266 789.395,137.339C789.395,138.996 788.032,140.359 786.375,140.359C784.718,140.359 783.355,138.996 783.355,137.339C783.355,135.682 784.718,134.319 786.375,134.319C786.413,134.318 786.451,134.317 786.489,134.317C788.043,134.317 789.335,135.566 789.387,137.119" style="fill:rgb(180,180,180);fill-rule:nonzero;"/>
                </g>
                <g transform="matrix(1,0,0,1,-593.718,-98.655)">
                    <path d="M812.4,136C812.138,135.774 811.806,135.647 811.461,135.639C811.2,135.639 810.854,135.791 810.854,136.093C810.854,136.412 811.237,136.534 811.482,136.613L811.844,136.722C812.602,136.946 813.188,137.328 813.188,138.209C813.228,138.757 813.021,139.295 812.624,139.676C812.185,140.023 811.638,140.204 811.079,140.189C810.393,140.182 809.725,139.965 809.165,139.568L809.772,138.427C810.107,138.762 810.555,138.963 811.028,138.991C811.359,138.991 811.714,138.825 811.714,138.441C811.714,138.057 811.159,137.907 810.855,137.82C809.966,137.568 809.381,137.336 809.381,136.281C809.38,136.259 809.38,136.237 809.38,136.215C809.38,135.248 810.176,134.451 811.144,134.451C811.182,134.451 811.22,134.453 811.258,134.455C811.852,134.466 812.435,134.62 812.958,134.902L812.4,136Z" style="fill:rgb(180,180,180);fill-rule:nonzero;"/>
                </g>
                <g transform="matrix(1,0,0,1,-607.171,-98.655)">
                    <path d="M830.73,136C830.469,135.775 830.137,135.647 829.792,135.639C829.531,135.639 829.185,135.791 829.185,136.093C829.185,136.412 829.567,136.534 829.813,136.613L830.175,136.722C830.933,136.946 831.519,137.328 831.519,138.209C831.559,138.757 831.352,139.296 830.955,139.676C830.516,140.023 829.968,140.204 829.409,140.189C828.723,140.182 828.055,139.965 827.496,139.568L828.103,138.427C828.438,138.762 828.886,138.963 829.359,138.991C829.691,138.991 830.045,138.825 830.045,138.441C830.045,138.057 829.489,137.907 829.186,137.82C828.297,137.568 827.713,137.336 827.713,136.281C827.712,136.259 827.712,136.237 827.712,136.215C827.712,135.248 828.508,134.451 829.476,134.451C829.514,134.451 829.552,134.453 829.59,134.455C830.184,134.466 830.767,134.62 831.29,134.902L830.73,136Z" style="fill:rgb(180,180,180);fill-rule:nonzero;"/>
                </g>
                <g transform="matrix(1,0,0,1,225.45,35.943)">
                    <rect x="0" y="0" width="1.415" height="5.446" style="fill:rgb(180,180,180);"/>
                </g>
                <g transform="matrix(1,0,0,1,-628.944,-99.052)">
                    <path d="M858.582,139.358L858.763,139.358C859.182,139.358 859.89,139.38 859.89,138.78C859.89,138.123 859.19,138.188 858.727,138.188L858.582,138.188L858.582,139.358ZM858.582,137.133L858.741,137.133C859.116,137.133 859.507,137.068 859.507,136.606C859.507,136.106 859.066,136.079 858.684,136.079L858.584,136.079L858.582,137.133ZM857.167,140.441L857.167,134.995L859.189,134.995C860.158,134.995 860.807,135.37 860.807,136.411C860.852,136.868 860.614,137.31 860.207,137.523L860.207,137.538C860.838,137.59 861.33,138.124 861.33,138.758C861.33,138.814 861.327,138.87 861.319,138.925C861.319,140.066 860.345,140.441 859.348,140.441L857.167,140.441Z" style="fill:rgb(180,180,180);fill-rule:nonzero;"/>
                </g>
                <g transform="matrix(1,0,0,1,233.546,35.943)">
                    <rect x="0" y="0" width="1.415" height="5.446" style="fill:rgb(180,180,180);"/>
                </g>
                <g transform="matrix(1,0,0,1,-651.254,-99.052)">
                    <path d="M888.988,139.242L890.688,139.242L890.688,140.442L887.575,140.442L887.575,135L888.99,135L888.988,139.242Z" style="fill:rgb(180,180,180);fill-rule:nonzero;"/>
                </g>
                <g transform="matrix(1,0,0,1,240.327,35.943)">
                    <rect x="0" y="0" width="1.415" height="5.446" style="fill:rgb(180,180,180);"/>
                </g>
                <g transform="matrix(1,0,0,1,-668.788,-99.052)">
                    <path d="M914.054,140.441L912.639,140.441L912.639,136.194L911.469,136.194L911.469,135L915.224,135L915.224,136.2L914.054,136.2L914.054,140.441Z" style="fill:rgb(180,180,180);fill-rule:nonzero;"/>
                </g>
                <g transform="matrix(1,0,0,1,-680.09,-99.052)">
                    <path d="M930.607,134.995L929.588,136.475L928.57,134.995L926.87,134.995L928.878,137.827L928.878,140.441L930.3,140.441L930.3,137.827L932.308,134.995L930.607,134.995Z" style="fill:rgb(180,180,180);fill-rule:nonzero;"/>
                </g>
            </g>
            <g transform="matrix(1,0,0,1,51.9949,6.47481)">
                <path d="M38.883,21.583C41.949,22.773 44.873,24.302 47.6,26.14C47.677,25.365 47.715,24.58 47.715,23.784C47.715,23.524 47.711,23.265 47.702,23.007C45.088,21.652 42.346,20.562 39.515,19.752C36.374,18.905 33.177,18.279 29.949,17.878C28.515,17.669 27.29,17.461 25.918,17.211C27.1,17.189 28.131,17.154 29.36,17.099C32.891,16.859 36.436,16.905 39.96,17.239C42.4,17.513 44.813,17.996 47.17,18.684C46.955,17.698 46.678,16.727 46.338,15.777C44.301,15.437 42.242,15.241 40.177,15.189C35.95,15.181 31.731,15.549 27.57,16.289C26.87,16.395 25.805,16.53 25.805,16.53C30.571,14.523 35.573,13.131 40.69,12.387C41.91,12.261 43.238,12.168 44.69,12.149C44.248,11.361 43.763,10.599 43.235,9.866C42.235,9.993 41.292,10.145 40.409,10.312C35.197,11.488 30.175,13.386 25.487,15.95C29.665,12.426 34.351,9.554 39.387,7.43C39.827,7.262 40.279,7.095 40.743,6.93C40.173,6.359 39.575,5.817 38.95,5.306L38.508,5.518C33.233,8.297 28.46,11.939 24.388,16.294C24.488,16.109 25.418,14.346 25.812,13.718C28.437,9.581 31.836,5.989 35.823,3.141C34.745,2.514 33.619,1.974 32.456,1.525C28.927,4.721 26.055,8.574 24,12.869C22.873,15.203 21.955,17.504 21.065,19.729C20.365,21.478 19.62,23.329 18.809,25.118C19.382,23.335 19.9,21.508 20.409,19.667C21.055,17.316 21.722,14.885 22.599,12.391C24.1,8.068 26.383,4.057 29.334,0.559C28.142,0.28 26.931,0.093 25.711,0C23.399,3.67 21.712,7.698 20.717,11.92C20.067,14.64 19.644,17.247 19.235,19.768C18.928,21.653 18.65,23.191 18.274,25.016C18.398,23.097 18.384,21.473 18.388,19.496C18.398,13.656 18.411,7.663 21.557,0.037C20.415,0.146 19.282,0.337 18.167,0.61C16.095,8.451 16.724,14.51 17.3,20.029C17.5,21.954 17.6,23.206 17.684,25.069C17.312,23.419 16.956,22.396 16.484,20.713C15.619,17.812 14.934,14.86 14.434,11.875C13.931,8.622 13.794,5.323 14.023,2.04C13.07,2.472 12.146,2.966 11.257,3.519C11.39,6.463 11.817,9.385 12.532,12.244C13.372,15.388 14.43,18.469 15.7,21.465C16.236,22.811 16.638,23.993 17.108,25.306C16.499,24.295 15.982,23.406 15.32,22.365C13.346,19.428 11.614,16.335 10.141,13.117C9.158,10.868 8.37,8.538 7.786,6.154C7.041,6.834 6.339,7.56 5.686,8.329C6.41,10.261 7.268,12.141 8.255,13.953C10.362,17.617 12.791,21.087 15.513,24.321C15.955,24.873 16.602,25.732 16.602,25.732C12.481,22.606 8.774,18.969 5.571,14.908C4.852,13.915 4.108,12.808 3.366,11.563C2.903,12.338 2.485,13.14 2.113,13.963C2.725,14.769 3.328,15.51 3.913,16.194C7.538,20.119 11.692,23.521 16.255,26.3C11.116,24.44 6.286,21.816 1.93,18.515C1.562,18.216 1.19,17.907 0.814,17.586C0.627,18.283 0.471,18.991 0.347,19.711C0.335,19.793 0.321,19.873 0.31,19.955C0.444,20.049 0.581,20.142 0.71,20.233C5.754,23.412 11.295,25.724 17.102,27.073C16.889,27.073 14.902,27.156 14.158,27.128C9.265,26.923 4.458,25.775 -0,23.747L0,23.784C-0.001,25.018 0.094,26.251 0.284,27.471C4.815,28.927 9.586,29.487 14.331,29.118C16.915,28.927 19.368,28.572 21.739,28.229C23.602,27.959 25.577,27.677 27.534,27.486C25.703,27.881 23.863,28.349 22.015,28.832C19.656,29.449 17.215,30.086 14.615,30.574C10.12,31.435 5.505,31.464 1,30.657C1.352,31.828 1.794,32.971 2.322,34.074C6.658,34.242 10.992,33.689 15.147,32.438C17.828,31.638 20.298,30.704 22.685,29.799C24.472,29.122 25.931,28.575 27.7,27.988C25.976,28.84 24.586,29.682 22.873,30.668C17.81,33.58 12.613,36.568 4.437,37.653C5.106,38.587 5.841,39.472 6.637,40.301C14.459,38.175 19.39,34.601 23.88,31.345C25.446,30.209 26.48,29.492 28.048,28.487C26.805,29.633 26.101,30.459 24.878,31.705C22.798,33.906 20.584,35.977 18.249,37.905C15.685,39.965 12.9,41.733 9.944,43.175C10.793,43.786 11.68,44.339 12.602,44.833C15.084,43.246 17.402,41.416 19.52,39.368C21.824,37.071 23.965,34.616 25.926,32.021C26.826,30.884 27.615,29.927 28.518,28.864C27.95,29.89 27.466,30.8 26.9,31.893C25.342,35.07 23.53,38.116 21.48,41C20.022,42.977 18.397,44.824 16.622,46.522C17.584,46.828 18.565,47.072 19.558,47.253C20.87,45.659 22.069,43.975 23.145,42.214C25.265,38.557 27.056,34.719 28.495,30.744C28.752,30.086 29.168,29.095 29.168,29.095C28.523,34.227 27.228,39.255 25.314,44.06C24.814,45.177 24.23,46.372 23.523,47.636L23.857,47.636C24.657,47.636 25.446,47.597 26.224,47.519C26.616,46.588 26.954,45.698 27.252,44.85C28.839,39.748 29.708,34.449 29.833,29.107C30.795,34.488 30.938,39.983 30.259,45.407C30.185,45.874 30.103,46.349 30.013,46.834C30.736,46.642 31.445,46.417 32.14,46.159L32.316,46.089C32.329,45.926 32.343,45.761 32.354,45.599C32.585,39.641 31.818,33.687 30.083,27.983C30.19,28.166 31.255,29.849 31.602,30.504C33.872,34.846 35.282,39.586 35.756,44.462C36.836,43.838 37.867,43.131 38.837,42.347C37.832,37.697 35.93,33.287 33.237,29.364C31.78,27.221 30.246,25.274 28.763,23.392C27.597,21.915 26.363,20.347 25.22,18.747C26.478,20.135 27.805,21.493 29.148,22.847C30.861,24.582 32.633,26.376 34.354,28.382C37.345,31.841 39.676,35.821 41.229,40.122C42.067,39.232 42.836,38.28 43.529,37.273C41.505,33.44 38.859,29.968 35.7,27C33.669,25.078 31.623,23.407 29.645,21.791C28.166,20.582 26.963,19.591 25.57,18.35C27.17,19.417 28.593,20.201 30.303,21.193C35.357,24.122 40.54,27.13 45.572,33.669C46.049,32.624 46.451,31.546 46.772,30.443C41.018,24.73 35.458,22.243 30.391,19.985C28.624,19.196 27.491,18.647 25.836,17.785C27.451,18.285 28.512,18.5 30.204,18.937C33.149,19.639 36.047,20.522 38.883,21.581M29.553,27.071L18.164,27.071L23.858,17.208L29.553,27.071Z" style="fill:rgb(180,180,180);fill-rule:nonzero;"/>
            </g>
        </g>
    </g>
</svg>
