<?xml version="1.0" encoding="UTF-8" standalone="no"?>
<!DOCTYPE svg PUBLIC "-//W3C//DTD SVG 1.1//EN" "http://www.w3.org/Graphics/SVG/1.1/DTD/svg11.dtd">
<svg width="100%" height="100%" viewBox="0 0 128 128" version="1.1" xmlns="http://www.w3.org/2000/svg" xmlns:xlink="http://www.w3.org/1999/xlink" xml:space="preserve" xmlns:serif="http://www.serif.com/" style="fill-rule:evenodd;clip-rule:evenodd;stroke-linejoin:round;stroke-miterlimit:2;">
    <path d="M7.957,26.076L64,26.076L64,62.358L7.957,26.076Z" style="fill:rgb(171,170,172);"/>
    <g transform="matrix(-1,0,0,1,127.704,38.0084)">
        <path d="M7.957,26.076L64,26.076L64,62.358L7.957,26.076Z" style="fill:rgb(171,170,172);"/>
    </g>
    <g transform="matrix(1,0,0,1,58.5838,0)">
        <path d="M7.957,26.076L64,26.076L64,62.358L7.957,26.076Z" style="fill:rgb(171,170,172);"/>
    </g>
    <g transform="matrix(-1,0,0,1,69.1205,38.0084)">
        <path d="M7.957,26.076L64,26.076L64,62.358L7.957,26.076Z" style="fill:rgb(171,170,172);"/>
    </g>
    <g transform="matrix(0.552872,0,0,0.552872,-6612.4,-12.4922)">
        <g>
            <g transform="matrix(0.243239,0,0,0.226517,11947.9,-10.084)">
                <path d="M972,347L972,647.708L961.102,655.308L519,347L972,347ZM958.066,635.349L958.066,361.963L566.04,361.963L958.066,635.349Z" style="fill:rgb(171,170,172);"/>
            </g>
            <g transform="matrix(0.243239,0,0,0.226517,11841.2,-10.084)">
                <path d="M972,347L972,662.908L519,347L972,347ZM958.066,361.963L566.04,361.963C566.04,361.963 958.066,635.349 958.066,635.349L958.066,361.963Z" style="fill:rgb(171,170,172);"/>
            </g>
            <g transform="matrix(-0.243239,0,0,0.226517,12310.6,58.0314)">
                <path d="M972,347L519,347L972,662.908L972,347ZM958.066,361.963L958.066,635.349L566.04,361.963L958.066,361.963Z" style="fill:rgb(171,170,172);"/>
            </g>
            <g transform="matrix(-0.243239,0,0,0.226517,12203.8,58.0314)">
                <path d="M972,347L519,347L972,662.908L972,347ZM958.066,361.963L958.066,635.349L566.04,361.963L958.066,361.963Z" style="fill:rgb(171,170,172);"/>
            </g>
        </g>
    </g>
</svg>
